<svg version="1.1" id="Layer_1" xmlns="http://www.w3.org/2000/svg" xmlns:xlink="http://www.w3.org/1999/xlink" x="0px" y="0px"
	 width="100%" viewBox="0 0 640 506" enable-background="new 0 0 640 506" xml:space="preserve">
<path fill="#FEFEFF" opacity="1.000000" stroke="none" 
	d="
M407.000000,507.000000 
	C271.333344,507.000000 136.166672,507.000000 1.000000,507.000000 
	C1.000000,338.333344 1.000000,169.666672 1.000000,1.000000 
	C214.333328,1.000000 427.666656,1.000000 641.000000,1.000000 
	C641.000000,169.666672 641.000000,338.333344 641.000000,507.000000 
	C563.166687,507.000000 485.333344,507.000000 407.000000,507.000000 
M211.022003,122.985893 
	C211.022003,122.985893 211.019699,122.961975 210.957352,123.767212 
	C213.645493,130.599213 216.333618,137.431198 219.351089,145.071747 
	C220.995316,154.478058 217.507965,157.557007 208.455704,154.524979 
	C205.949890,153.685699 203.414719,152.650406 201.221893,151.205811 
	C185.688446,140.972641 170.127548,130.774200 154.793854,120.246498 
	C135.306198,106.866814 114.896194,97.436836 90.249741,100.804680 
	C66.941292,103.989677 46.428173,127.852432 56.102081,155.963882 
	C58.566147,161.085678 60.095650,167.018265 63.689060,171.160309 
	C71.142532,179.751724 81.868973,182.835236 92.751640,183.925034 
	C107.633377,185.415283 122.617828,185.858200 137.549408,186.879532 
	C149.243774,187.679428 160.212280,190.522415 169.173965,199.626266 
	C169.514969,200.199783 169.855972,200.773285 170.068237,202.087891 
	C169.057358,205.421722 168.046478,208.755569 166.098190,212.203812 
	C160.263428,211.856491 154.428650,211.509171 147.989853,210.973907 
	C142.268600,203.462646 134.744598,198.991943 125.277390,198.805634 
	C113.571648,198.575272 101.854347,198.931931 89.446907,198.688278 
	C80.235672,196.973190 71.083946,194.617294 61.793552,193.754608 
	C54.900528,193.114548 47.827457,194.413422 40.007145,194.872742 
	C34.683079,196.581665 29.029156,197.636993 24.098440,200.125336 
	C10.723291,206.875275 3.454628,222.758453 7.477479,235.439270 
	C8.721266,239.359924 10.290313,243.213913 12.091995,246.912567 
	C14.807375,252.486893 17.969416,257.909271 10.357363,262.235962 
	C10.227006,262.310059 10.118298,262.488739 10.075095,262.640198 
	C6.876018,273.857208 2.236143,285.097168 10.673874,296.960144 
	C11.481415,303.606934 14.177180,307.402039 19.612026,307.654175 
	C26.296255,307.964264 32.216385,310.065887 38.113529,312.909363 
	C41.065056,314.332550 44.367222,315.131042 47.588669,315.874695 
	C63.906666,319.641602 80.322861,318.597717 96.703331,316.448608 
	C113.540680,314.239532 130.320084,312.011871 147.346878,314.750641 
	C160.777405,316.910950 172.572037,321.757294 180.965912,333.895447 
	C183.484711,339.441742 181.071304,344.326538 178.549774,348.951294 
	C170.085831,364.474976 155.999634,373.750427 140.583405,380.735535 
	C128.051910,386.413605 114.713501,390.294922 101.800407,395.152374 
	C93.736214,398.185883 85.569862,401.090881 77.861595,404.889984 
	C68.906059,409.303772 62.532867,416.513275 62.199154,426.923279 
	C61.953583,434.583649 63.331585,442.296112 63.910332,450.672943 
	C64.268250,451.471100 64.626167,452.269287 64.993675,452.998444 
	C64.993675,452.998444 64.924126,452.994171 64.852623,453.776947 
	C68.195641,466.264557 76.290298,474.191986 88.511574,477.838684 
	C103.840454,482.412689 118.588280,479.705536 132.700073,473.142944 
	C158.818832,460.996643 177.903534,440.919067 192.705750,416.898987 
	C201.580017,402.498383 208.447067,386.860901 216.217560,371.779999 
	C223.012680,358.592102 229.743958,345.314941 240.698914,334.946106 
	C249.310684,326.795105 255.393097,326.744720 263.992981,334.012817 
	C263.992981,334.012817 263.923004,333.985504 263.857971,334.571625 
	C264.203369,335.020905 264.548737,335.470154 264.912872,336.741241 
	C265.670715,340.923828 266.941162,345.088196 267.090363,349.292389 
	C267.538849,361.930481 263.929535,374.619049 267.421753,387.937592 
	C267.791473,389.379333 268.106018,390.837952 268.539703,392.260162 
	C271.895813,403.265015 280.746307,407.574768 291.488068,403.322205 
	C293.942413,402.350525 296.365143,401.133636 298.538361,399.644287 
	C311.775391,390.572418 318.592499,377.407196 321.949493,362.160889 
	C323.585175,354.731995 324.161041,346.968292 326.634674,339.848846 
	C330.464630,328.825775 337.449371,327.007263 347.207428,333.471802 
	C348.852173,334.561401 350.373016,335.903473 351.741913,337.329681 
	C354.234833,339.926971 356.570923,342.674805 359.210022,345.987915 
	C360.349854,348.135895 361.903809,350.164429 362.563568,352.450928 
	C367.509155,369.590332 372.278229,386.780670 376.989014,404.697021 
	C380.080872,411.534241 383.824005,417.850403 390.065735,422.404205 
	C401.807556,430.970856 418.752197,431.203125 430.286835,422.829132 
	C438.988678,416.511688 442.056458,404.059998 438.147797,390.282043 
	C437.188538,381.401520 433.946503,373.386261 429.612335,365.604523 
	C426.508118,360.030975 424.377319,353.915283 422.249817,347.392700 
	C424.422546,346.497375 426.635468,344.785187 428.758942,344.889801 
	C432.330414,345.065643 436.176514,345.744720 439.328247,347.349152 
	C456.342316,356.010437 473.307373,364.786530 490.039215,373.978363 
	C506.614075,383.083954 523.772644,389.806732 543.045654,388.781189 
	C562.903687,387.724487 578.231567,379.307709 586.045044,360.191711 
	C588.888000,353.236450 590.381104,345.852264 587.251770,337.655182 
	C585.755371,318.921967 576.795593,309.817444 558.993958,305.545441 
	C555.857361,304.792755 552.749512,303.920654 549.793091,302.301849 
	C550.148926,301.370605 550.578003,300.459961 550.846802,299.504242 
	C551.630737,296.716919 551.505859,292.746185 553.323975,291.428284 
	C555.296387,289.998474 559.054443,291.032074 562.578674,291.356750 
	C564.119080,292.887909 565.659485,294.419037 567.145264,296.736908 
	C567.309448,301.734955 569.680603,305.824219 574.325439,307.035614 
	C582.976685,309.291962 591.854614,310.665558 600.567505,306.679230 
	C601.802429,306.114197 603.760803,305.552002 604.679260,306.122894 
	C612.154846,310.769562 620.245361,307.679779 627.976196,307.958679 
	C634.172607,308.182220 639.166809,302.284332 638.398682,296.387665 
	C637.818909,291.936249 635.758911,287.677643 634.313293,282.606354 
	C632.533203,278.411865 630.753174,274.217377 629.390808,269.365997 
	C630.135498,268.081604 630.964111,266.838013 631.611816,265.506409 
	C637.682129,253.027222 640.721008,240.388840 633.399353,226.538849 
	C632.745422,224.661209 632.065247,222.792282 631.441833,220.904556 
	C627.300049,208.362579 618.708740,200.627609 605.659119,199.092651 
	C595.834290,197.936996 585.817749,197.678802 575.925293,198.051208 
	C567.282837,198.376572 563.653137,203.309982 563.329529,212.168304 
	C563.235596,214.740753 562.316345,217.283051 561.001038,219.969009 
	C558.117981,219.212006 555.234863,218.455002 552.090149,217.064880 
	C551.027893,215.383621 549.965637,213.702362 548.799316,211.245804 
	C547.544006,207.835907 546.288696,204.426010 545.643677,200.466507 
	C547.339111,199.812363 549.056580,199.209869 550.726318,198.495575 
	C560.759338,194.203308 565.008606,183.259720 560.298401,173.654648 
	C559.596191,160.154984 552.683716,154.894119 539.548035,157.798630 
	C526.684631,160.642960 516.148682,167.926971 505.903442,175.635834 
	C502.054016,178.532318 498.778931,182.192154 494.718384,185.994232 
	C497.463470,187.500137 498.879517,188.276962 500.051910,189.779694 
	C499.387573,192.188965 498.723267,194.598221 497.507996,197.415253 
	C490.772308,200.659393 486.651947,205.940475 484.366455,213.118896 
	C479.782990,211.417282 475.199493,209.715683 470.217590,207.464050 
	C469.208282,201.374023 464.272797,199.172607 459.407928,195.970459 
	C458.850922,193.972366 458.293915,191.974289 457.973969,189.249680 
	C459.152649,186.148087 460.023926,182.883759 461.564453,179.973724 
	C467.466522,168.824677 477.671387,162.540558 488.322601,156.792007 
	C502.877289,148.936722 518.806091,145.374268 534.714172,141.661407 
	C545.559998,139.130051 556.535645,136.888031 567.076050,133.382584 
	C580.221741,129.010696 587.498108,119.266373 587.880676,105.233025 
	C588.023071,100.008751 586.800354,94.747269 586.278198,88.603302 
	C585.168335,79.233292 582.164917,70.875160 574.578308,64.562317 
	C562.661560,54.646400 548.718628,53.509140 534.415161,55.762432 
	C503.810181,60.583786 481.434692,79.089043 461.105957,100.909630 
	C444.378052,118.865120 433.764954,140.936249 420.064423,160.924026 
	C412.861511,171.432327 405.361725,181.645203 394.000549,187.867569 
	C384.186371,193.242676 378.341949,190.454346 374.831360,178.852936 
	C375.758057,170.174423 376.410980,161.455200 377.692993,152.829498 
	C378.838623,145.121521 380.342407,137.522629 377.224945,129.106552 
	C376.488403,125.884956 376.299683,122.402229 374.911957,119.491028 
	C370.843842,110.956726 361.530487,108.874191 350.646362,113.630844 
	C335.184326,120.388168 326.733917,133.203308 321.058014,148.257370 
	C317.988464,156.398636 316.370056,165.227631 312.377167,172.844818 
	C307.321533,182.489319 299.198090,182.605118 291.424133,174.637878 
	C280.457581,163.398712 277.290497,149.072372 275.083069,134.307968 
	C273.404297,123.079781 272.529724,111.630157 269.675446,100.702721 
	C265.425171,84.430748 254.292130,74.619911 237.191513,73.714684 
	C217.132202,72.652824 207.654922,85.104706 207.454178,101.972839 
	C207.374496,108.667305 209.414215,115.387001 210.578491,122.446655 
	C210.675308,122.677444 210.826294,122.864563 211.022003,122.985893 
M139.592239,340.332153 
	C139.865906,339.727417 140.085861,339.090912 140.421722,338.522949 
	C143.188293,333.844452 142.965088,333.441772 137.721512,332.992584 
	C132.923935,332.581635 128.147232,331.779327 123.344719,331.603668 
	C112.842781,331.219574 102.331268,331.771851 92.452156,335.616272 
	C85.416504,338.354218 78.508240,344.270996 79.841095,354.304596 
	C80.232574,357.251648 80.759689,360.180664 81.097679,363.901031 
	C82.192383,374.006775 86.841660,378.494781 96.587700,377.928345 
	C100.464485,377.703003 104.741852,376.870941 107.997185,374.916504 
	C116.382927,369.881927 124.649368,364.503754 132.278229,358.405609 
	C137.176743,354.489960 140.860672,349.054871 145.733704,343.576050 
	C142.660812,342.385162 141.014725,341.747223 139.592239,340.332153 
M132.204605,76.839607 
	C134.400284,81.355766 135.770035,86.588730 138.948959,90.251534 
	C147.907455,100.573624 159.455719,107.610359 171.911591,113.026855 
	C174.758148,114.264687 178.125824,114.304115 181.253662,114.895096 
	C180.880478,111.873940 180.507309,108.852783 180.227722,104.992989 
	C179.111206,99.813904 178.339935,94.530136 176.807632,89.477142 
	C173.426895,78.328606 169.613159,67.278915 161.797119,58.282864 
	C155.140350,50.621140 145.926971,49.086563 138.100281,54.153912 
	C129.697754,59.594090 128.518921,64.764420 132.204605,76.839607 
M476.818024,416.639099 
	C476.727020,416.960541 476.742218,417.276917 476.707367,418.397064 
	C480.989471,427.056427 485.914734,435.185486 494.836670,439.924683 
	C501.334290,443.376160 509.147491,442.160980 515.078674,436.848022 
	C520.434387,432.050507 521.463623,427.611053 518.859619,420.091217 
	C518.502686,411.672211 514.455505,405.314575 508.000214,400.172546 
	C497.817169,392.061249 486.253754,386.636749 474.004700,382.590363 
	C464.769562,379.539581 463.813416,380.518768 465.959198,390.032318 
	C466.032410,390.356903 466.074432,390.688538 466.000275,391.808289 
	C468.645599,400.346436 470.477051,409.245117 476.818024,416.639099 
M324.865051,480.823486 
	C326.918976,485.429565 328.242554,490.579132 331.180603,494.527283 
	C337.094604,502.474609 345.874969,503.693878 354.995117,501.887634 
	C363.317078,500.239471 368.127411,494.320679 368.948578,486.309540 
	C369.638641,479.577118 368.468475,472.654022 368.126190,464.868195 
	C364.903900,443.604034 356.815491,424.320648 344.319763,406.880127 
	C343.060394,405.122406 341.035828,403.912964 339.366394,402.449066 
	C338.194916,404.321014 336.578522,406.050201 335.924408,408.088196 
	C331.751190,421.090607 327.329620,434.041534 323.902313,447.246246 
	C321.088837,458.085876 321.079041,469.199829 324.865051,480.823486 
M297.864380,90.632561 
	C300.244537,95.158669 302.465057,99.778427 305.050049,104.184372 
	C307.604034,108.537544 309.601868,108.404091 312.091705,103.999001 
	C319.828583,90.310585 325.833313,75.881317 329.636810,60.637619 
	C331.927582,51.456516 333.775482,42.085094 330.177185,31.785248 
	C329.016083,16.874943 320.817993,7.798830 307.788513,6.998700 
	C295.668091,6.254394 287.705017,12.753630 285.190613,26.521151 
	C283.250702,37.142994 285.358154,47.733200 288.046356,57.988945 
	C290.864594,68.740677 294.610535,79.249237 297.864380,90.632561 
z"/>
<path fill="#38B5FE" opacity="1.000000" stroke="none" 
	d="
M377.102570,403.955078 
	C372.278229,386.780670 367.509155,369.590332 362.563568,352.450928 
	C361.903809,350.164429 360.349854,348.135895 359.127838,345.256042 
	C358.171783,337.316437 353.797485,332.158295 348.909882,327.328583 
	C337.645142,316.197296 328.632050,318.297791 323.516174,333.268677 
	C322.822998,335.297119 322.401306,337.434235 322.022614,339.551239 
	C320.973511,345.416443 320.518555,351.438934 318.921600,357.145386 
	C314.499786,372.945679 306.242615,386.010254 290.705414,393.153229 
	C281.119537,397.560211 273.886719,395.602234 267.552582,387.233398 
	C263.929535,374.619049 267.538849,361.930481 267.090363,349.292389 
	C266.941162,345.088196 265.670715,340.923828 264.851135,336.051819 
	C264.500610,334.903442 264.211823,334.444489 263.923004,333.985504 
	C263.923004,333.985504 263.992981,334.012817 264.002319,333.647369 
	C262.983734,327.584106 261.412781,321.778137 255.535370,319.585144 
	C249.202072,317.222046 243.963684,320.564972 239.465225,324.966797 
	C239.227386,325.199554 238.984375,325.427002 238.743958,325.657074 
	C226.087875,337.767883 218.316849,353.086121 211.329361,368.720581 
	C201.440598,390.846527 189.943710,411.918823 173.863968,430.179962 
	C159.164917,446.873138 142.271317,460.685577 120.547478,467.241852 
	C104.391930,472.117584 88.437355,472.698303 74.027641,461.973755 
	C70.641220,459.453400 67.940361,456.011902 64.924126,452.994171 
	C64.924126,452.994171 64.993675,452.998444 64.986969,452.690308 
	C64.648888,451.583221 64.317497,450.784271 63.986111,449.985352 
	C63.331585,442.296112 61.953583,434.583649 62.199154,426.923279 
	C62.532867,416.513275 68.906059,409.303772 77.861595,404.889984 
	C85.569862,401.090881 93.736214,398.185883 101.800407,395.152374 
	C114.713501,390.294922 128.051910,386.413605 140.583405,380.735535 
	C155.999634,373.750427 170.085831,364.474976 178.549774,348.951294 
	C181.071304,344.326538 183.484711,339.441742 180.924225,333.104309 
	C180.061554,326.505768 177.493927,321.662231 173.207611,317.612305 
	C166.305328,311.090576 157.937881,307.664917 148.792313,306.112000 
	C141.677429,304.903900 134.465897,304.265015 127.724594,303.426331 
	C128.138977,297.998657 128.347870,292.748932 129.068161,287.570343 
	C129.251556,286.251831 130.832596,284.647003 132.162415,284.061066 
	C135.777237,282.468353 139.959503,281.945068 143.281418,279.943390 
	C158.634323,270.692169 164.673035,246.230331 155.891022,229.661560 
	C153.443649,223.248123 151.018768,217.204971 148.593887,211.161835 
	C154.428650,211.509171 160.263428,211.856491 166.643066,212.533020 
	C167.374512,214.666809 167.783737,216.480331 167.711533,218.274490 
	C167.244583,229.878433 166.378448,241.474197 166.223175,253.080414 
	C166.085510,263.369751 166.945740,273.670959 166.867737,283.963196 
	C166.833755,288.448059 167.680008,292.100159 171.172134,295.353149 
	C171.084305,303.566101 179.230316,310.394073 187.450119,309.840973 
	C198.539474,309.094788 209.644882,308.541718 220.751389,308.112183 
	C227.546188,307.849396 231.692673,305.211121 232.776001,298.594421 
	C233.726578,292.788452 234.189117,286.742279 233.661789,280.911194 
	C233.311600,277.038727 230.839157,273.358185 229.242233,269.221252 
	C226.491516,258.809662 226.491516,258.810394 216.324295,258.755096 
	C215.336853,258.749725 214.349487,258.728241 213.226929,258.286072 
	C213.009003,246.919479 213.141739,235.973099 212.738388,225.046494 
	C212.575058,220.622314 213.080505,215.568939 208.072479,212.314423 
	C207.587708,210.907242 207.168594,209.818741 207.103531,208.709457 
	C206.808624,203.682114 203.918594,198.903229 199.008316,198.111877 
	C189.220276,196.534409 179.192978,194.972702 170.196976,201.346802 
	C169.855972,200.773285 169.514969,200.199783 169.056320,198.911224 
	C168.147003,188.653732 161.839340,183.121933 153.605194,181.357224 
	C141.053360,178.667160 128.149933,177.508087 115.349403,176.129974 
	C107.948540,175.333191 100.377724,175.950531 93.022408,174.929764 
	C78.443710,172.906494 64.634026,168.942123 56.212574,155.202316 
	C46.428173,127.852432 66.941292,103.989677 90.249741,100.804680 
	C114.896194,97.436836 135.306198,106.866814 154.793854,120.246498 
	C170.127548,130.774200 185.688446,140.972641 201.221893,151.205811 
	C203.414719,152.650406 205.949890,153.685699 208.455704,154.524979 
	C217.507965,157.557007 220.995316,154.478058 219.169876,144.321686 
	C216.332352,136.701752 213.676025,129.831863 211.019699,122.961975 
	C211.019699,122.961975 211.022003,122.985893 210.977493,122.821609 
	C210.832382,122.432510 210.684387,122.245140 210.489014,122.095207 
	C209.414215,115.387001 207.374496,108.667305 207.454178,101.972839 
	C207.654922,85.104706 217.132202,72.652824 237.191513,73.714684 
	C254.292130,74.619911 265.425171,84.430748 269.675446,100.702721 
	C272.529724,111.630157 273.404297,123.079781 275.083069,134.307968 
	C277.290497,149.072372 280.457581,163.398712 291.424133,174.637878 
	C299.198090,182.605118 307.321533,182.489319 312.377167,172.844818 
	C316.370056,165.227631 317.988464,156.398636 321.058014,148.257370 
	C326.733917,133.203308 335.184326,120.388168 350.646362,113.630844 
	C361.530487,108.874191 370.843842,110.956726 374.911957,119.491028 
	C376.299683,122.402229 376.488403,125.884956 377.202087,129.981354 
	C376.564026,135.420914 376.112610,140.014999 375.301605,144.544708 
	C373.205048,156.254623 371.092834,167.938629 374.718018,179.733261 
	C378.341949,190.454346 384.186371,193.242676 394.000549,187.867569 
	C405.361725,181.645203 412.861511,171.432327 420.064423,160.924026 
	C433.764954,140.936249 444.378052,118.865120 461.105957,100.909630 
	C481.434692,79.089043 503.810181,60.583786 534.415161,55.762432 
	C548.718628,53.509140 562.661560,54.646400 574.578308,64.562317 
	C582.164917,70.875160 585.168335,79.233292 586.286316,89.449738 
	C586.226013,91.958923 586.188477,93.623604 586.084351,95.284111 
	C585.330322,107.309753 580.533875,117.291534 569.027527,121.827782 
	C558.919250,125.812851 548.225098,128.522858 537.592102,130.919632 
	C518.116150,135.309677 498.606110,139.388870 481.237274,149.934952 
	C472.787262,155.065689 464.804047,160.778122 459.943787,169.696274 
	C456.470551,176.069305 453.857330,182.718277 457.736938,189.976212 
	C458.293915,191.974289 458.850922,193.972366 458.978912,196.428253 
	C443.446930,196.946960 428.343872,196.987198 413.241089,197.077164 
	C405.241943,197.124832 399.083954,203.105560 399.024780,211.128662 
	C398.944092,222.072495 399.034882,233.018768 399.170563,243.962540 
	C399.244568,249.933945 399.754333,255.903275 399.723816,261.871796 
	C399.683350,269.795929 398.931061,277.734833 399.276581,285.632751 
	C399.399872,288.450836 401.833069,291.167877 403.166504,294.331787 
	C403.290039,301.421448 406.651062,306.165894 413.069885,307.298035 
	C419.520538,308.435760 426.536865,309.519653 432.722809,308.096039 
	C438.617126,306.739563 443.777344,306.955627 449.481171,307.929138 
	C454.120148,308.720917 459.054443,308.557098 463.760040,307.996521 
	C470.300629,307.217224 475.788330,298.812256 474.640717,292.424469 
	C474.264862,290.332642 474.302338,288.166534 474.466797,286.144958 
	C478.920898,288.157196 483.059021,290.058868 487.537231,291.959320 
	C489.030609,293.298248 490.183868,294.638428 491.035309,296.189209 
	C491.391449,298.788300 491.379120,301.739166 492.826935,303.465057 
	C498.217773,309.891296 505.565704,310.462921 513.430359,309.706390 
	C519.647522,309.108307 526.019897,308.690521 532.187805,309.389404 
	C539.337830,310.199585 545.196289,309.059692 549.628357,303.103729 
	C552.749512,303.920654 555.857361,304.792755 558.993958,305.545441 
	C576.795593,309.817444 585.755371,318.921967 587.165039,338.494934 
	C584.067383,358.769714 573.579346,371.989258 554.389832,377.226715 
	C543.030090,380.327118 531.384827,379.795959 519.845581,377.451996 
	C501.181000,373.660675 485.937653,362.569672 469.440887,354.097137 
	C456.775635,347.592438 443.758209,341.760101 430.781555,335.884552 
	C427.587677,334.438385 423.688202,333.842255 421.248749,337.378326 
	C418.852325,340.851959 419.427277,344.599365 421.812225,348.041473 
	C424.377319,353.915283 426.508118,360.030975 429.612335,365.604523 
	C433.946503,373.386261 437.188538,381.401520 438.155151,391.132019 
	C437.858887,401.967010 434.077789,409.786804 425.118347,415.092041 
	C409.825256,424.147644 390.367371,417.992950 381.077667,406.302551 
	C380.183655,405.177521 378.447693,404.721619 377.102570,403.955078 
M301.150787,215.931946 
	C300.503326,214.050095 299.778351,212.190872 299.221466,210.282593 
	C296.346893,200.431686 292.171967,197.233246 282.072021,197.185959 
	C276.141174,197.158188 270.210449,197.097687 264.279663,197.054382 
	C255.410187,196.989639 249.486359,202.611099 248.056900,211.239197 
	C244.701004,231.495087 240.915527,251.679642 237.337585,271.899017 
	C235.951019,279.734619 232.207993,287.804840 239.199829,295.665375 
	C239.262054,300.835968 241.713409,305.338806 246.248001,306.778900 
	C256.115448,309.912537 266.300995,310.869141 276.205566,306.179657 
	C277.275940,305.672852 279.032074,305.001831 279.685486,305.479706 
	C285.439423,309.688080 292.021057,308.935211 298.444275,308.831604 
	C313.569641,308.587677 318.750122,299.018768 315.780487,286.231873 
	C311.290741,266.899628 308.555725,247.163574 304.863678,227.639099 
	C304.154816,223.890442 302.471344,220.326080 301.150787,215.931946 
M378.906982,245.328339 
	C385.387817,240.616013 387.741486,233.724487 388.647369,226.233902 
	C389.233154,221.389862 390.183929,216.245697 385.069061,211.969254 
	C384.392365,205.446365 381.742889,200.005432 375.211639,197.903717 
	C364.240448,194.373245 352.989868,193.253677 342.011261,197.726776 
	C327.498108,203.640015 319.214600,218.268265 322.185608,232.923370 
	C323.160370,237.731628 325.651184,242.232529 327.286560,247.594025 
	C328.322144,250.442078 329.357697,253.290115 329.897125,256.619019 
	C325.752747,260.043365 322.994934,264.281982 322.421906,269.720093 
	C321.933929,274.351105 320.887787,279.065308 321.357056,283.611755 
	C321.755341,287.470215 323.965851,291.141632 325.236206,295.687042 
	C325.787018,301.848511 329.494995,307.185730 334.449432,307.743469 
	C343.168640,308.725006 351.986298,310.047913 360.691559,309.654114 
	C374.003204,309.051910 384.026184,302.202515 389.355621,289.791809 
	C392.547943,282.357788 393.854065,274.511322 388.848328,266.277985 
	C385.508636,259.534180 382.168915,252.790359 378.906982,245.328339 
z"/>
<path fill="#234E82" opacity="1.000000" stroke="none" 
	d="
M403.211914,293.931061 
	C401.833069,291.167877 399.399872,288.450836 399.276581,285.632751 
	C398.931061,277.734833 399.683350,269.795929 399.723816,261.871796 
	C399.754333,255.903275 399.244568,249.933945 399.170563,243.962540 
	C399.034882,233.018768 398.944092,222.072495 399.024780,211.128662 
	C399.083954,203.105560 405.241943,197.124832 413.241089,197.077164 
	C428.343872,196.987198 443.446930,196.946960 459.066711,196.806671 
	C464.272797,199.172607 469.208282,201.374023 470.488770,208.127563 
	C470.923157,210.082932 471.086426,211.374786 471.165405,213.159698 
	C471.051300,226.626160 471.038208,239.599640 470.977661,252.572906 
	C470.965271,255.223450 470.747040,257.872375 470.671600,260.523438 
	C470.478363,267.311462 469.757568,274.146973 470.324310,280.872803 
	C470.721802,285.590271 469.506409,289.203949 466.814056,292.696960 
	C461.255035,299.909149 453.542023,298.222351 446.188110,297.509308 
	C442.300323,297.132294 437.901337,294.468628 434.732117,295.610352 
	C423.760254,299.562958 413.468140,299.271484 403.211914,293.931061 
M460.797272,265.369995 
	C460.970490,247.568405 461.066864,229.765503 461.372192,211.966171 
	C461.446289,207.645187 459.840179,205.853195 455.512115,206.130615 
	C452.029175,206.353867 448.519470,206.280258 445.026031,206.181915 
	C442.126312,206.100281 440.794556,207.173233 440.815979,210.247025 
	C440.859955,216.545471 440.900208,222.863281 440.469208,229.140671 
	C439.960785,236.545212 438.908051,237.191483 430.611328,236.622116 
	C430.457489,234.574905 430.152252,232.461197 430.167419,230.349792 
	C430.212891,224.026077 430.264191,217.697830 430.552063,211.382233 
	C430.713928,207.830688 429.557312,206.012421 425.789764,206.151596 
	C421.964600,206.292908 418.131714,206.288437 414.303040,206.254410 
	C410.350769,206.219299 408.488403,208.105484 408.532257,212.048065 
	C408.646729,222.346344 408.753540,232.645004 408.791840,242.943756 
	C408.839935,255.891846 409.002502,268.844269 408.718140,281.786072 
	C408.625732,285.992249 410.363190,287.674561 414.062622,287.895020 
	C417.381439,288.092773 420.737762,287.743683 424.045990,288.017120 
	C428.546783,288.389160 430.401245,286.761505 430.211243,282.079987 
	C429.927979,275.100006 430.123993,268.099335 430.167511,261.107788 
	C430.189941,257.505035 432.562531,256.945587 435.560822,256.792969 
	C438.737946,256.631287 439.711823,258.342072 439.831879,260.986969 
	C440.043121,265.640198 440.830963,270.396271 440.171234,274.933899 
	C438.671906,285.245880 439.821777,288.449432 453.175537,287.967499 
	C454.339935,287.925476 455.809509,288.376648 456.607574,287.828064 
	C458.198730,286.734253 460.475555,285.197510 460.609222,283.679871 
	C461.115479,277.931946 460.877838,272.118469 460.797272,265.369995 
z"/>
<path fill="#2861A7" opacity="1.000000" stroke="none" 
	d="
M155.913544,230.031830 
	C164.673035,246.230331 158.634323,270.692169 143.281418,279.943390 
	C139.959503,281.945068 135.777237,282.468353 132.162415,284.061066 
	C130.832596,284.647003 129.251556,286.251831 129.068161,287.570343 
	C128.347870,292.748932 128.138977,297.998657 127.724594,303.426331 
	C134.465897,304.265015 141.677429,304.903900 148.792313,306.112000 
	C157.937881,307.664917 166.305328,311.090576 173.207611,317.612305 
	C177.493927,321.662231 180.061554,326.505768 180.894043,332.703857 
	C172.572037,321.757294 160.777405,316.910950 147.346878,314.750641 
	C130.320084,312.011871 113.540680,314.239532 96.703331,316.448608 
	C80.322861,318.597717 63.906666,319.641602 47.588669,315.874695 
	C44.367222,315.131042 41.065056,314.332550 38.113529,312.909363 
	C32.216385,310.065887 26.296255,307.964264 19.612026,307.654175 
	C14.177180,307.402039 11.481415,303.606934 11.053881,296.545197 
	C20.938549,297.086517 30.424900,298.439270 39.953400,298.879333 
	C48.262253,299.263092 55.353828,295.439636 61.438583,290.014008 
	C68.376701,283.827484 70.748322,275.375275 72.663208,266.807678 
	C80.140823,280.649872 74.532219,293.990936 55.309399,308.066956 
	C68.099998,308.066956 80.312897,308.066956 92.271347,308.066956 
	C90.957153,303.521149 89.884361,299.810364 89.215858,296.107208 
	C97.881577,299.397125 106.295258,296.981659 114.594147,296.506622 
	C120.305367,296.179718 123.817535,292.694489 124.146561,286.485443 
	C124.378723,282.104462 125.072914,277.747986 125.497238,273.949799 
	C129.875259,272.486420 133.955566,271.578674 137.622162,269.812195 
	C148.985992,264.337463 152.970551,253.914185 154.941696,242.444077 
	C155.641586,238.371277 155.610764,234.172882 155.913544,230.031830 
z"/>
<path fill="#234D81" opacity="1.000000" stroke="none" 
	d="
M491.337128,295.978607 
	C490.183868,294.638428 489.030609,293.298248 487.483337,291.497498 
	C487.142853,286.890625 487.408630,282.733673 487.201569,278.600433 
	C486.865784,271.898071 486.219879,265.211212 485.777283,258.092010 
	C485.826324,254.676697 485.802979,251.687195 485.786743,248.247986 
	C485.582611,236.288498 485.371429,224.778732 485.160278,213.268951 
	C486.651947,205.940475 490.772308,200.659393 498.243347,197.224976 
	C510.576141,196.686722 522.172607,196.301682 533.771423,196.009430 
	C538.269714,195.896088 542.219971,197.232651 545.033386,201.016098 
	C546.288696,204.426010 547.544006,207.835907 548.574585,211.916504 
	C547.081604,220.062485 545.806641,227.536621 544.557617,235.015106 
	C544.452026,235.647049 544.532349,236.308456 544.504944,236.955276 
	C544.178406,244.667221 543.842651,252.378784 543.527588,260.091217 
	C543.502075,260.716949 543.419189,261.448853 543.688477,261.959961 
	C545.121643,264.680267 546.658630,267.345886 548.167236,270.393311 
	C548.246704,271.709351 548.318604,272.662476 548.282837,274.083984 
	C548.113892,276.703308 548.103699,278.857147 547.983093,281.004791 
	C547.236145,294.311249 540.497559,299.675293 527.305420,298.207153 
	C522.091919,297.627014 516.685608,297.817627 511.468445,298.469025 
	C504.456238,299.344482 497.713867,299.554138 491.337128,295.978607 
M533.161316,205.596390 
	C522.531738,205.928040 511.903870,206.346497 501.271851,206.551651 
	C496.545349,206.642868 494.629974,208.993698 494.862823,213.442795 
	C495.105927,218.087357 495.675354,222.724548 495.715668,227.368301 
	C495.872955,245.473526 495.872040,263.580078 495.941010,281.686096 
	C495.964844,287.944061 497.948761,289.880798 504.372894,289.853912 
	C513.651001,289.815094 522.929016,289.685608 532.207031,289.686646 
	C535.990479,289.687042 538.233459,287.417572 537.917725,284.203430 
	C537.402039,278.954651 542.778748,272.515167 535.244385,268.577026 
	C534.149414,268.004669 532.638977,268.123444 531.318481,268.106628 
	C527.991577,268.064392 524.639465,267.882568 521.341187,268.204651 
	C516.202332,268.706512 516.852112,265.200073 516.662231,262.082489 
	C516.467651,258.887726 516.844177,256.504211 521.083801,256.946045 
	C524.212585,257.272064 527.409973,256.880280 530.559998,257.077026 
	C534.322327,257.312012 536.216736,256.001556 535.956970,251.979111 
	C535.764343,248.996109 535.863831,245.989792 535.926636,242.995819 
	C536.017090,238.681473 534.346436,236.554001 529.665771,237.002365 
	C526.720520,237.284470 523.692993,236.586746 520.718445,236.711426 
	C515.615662,236.925339 517.499939,233.166077 517.224976,230.766235 
	C516.920776,228.111816 517.132263,225.656693 520.990601,226.036087 
	C525.116211,226.441757 529.261230,226.688492 533.403625,226.871857 
	C536.633118,227.014816 538.254333,225.570465 538.170715,222.088181 
	C538.087280,218.612244 538.254395,215.098709 538.693665,211.650330 
	C539.169739,207.913361 537.946777,205.849289 533.161316,205.596390 
z"/>
<path fill="#38B6FE" opacity="1.000000" stroke="none" 
	d="
M297.950989,89.864082 
	C294.610535,79.249237 290.864594,68.740677 288.046356,57.988945 
	C285.358154,47.733200 283.250702,37.142994 285.190613,26.521151 
	C287.705017,12.753630 295.668091,6.254394 307.788513,6.998700 
	C320.817993,7.798830 329.016083,16.874943 330.202881,32.631065 
	C329.159119,55.900860 320.299316,75.766884 309.930054,95.123917 
	C308.225037,98.306778 306.048859,99.039642 303.419342,95.883888 
	C301.685577,93.803123 299.779755,91.865692 297.950989,89.864082 
z"/>
<path fill="#39B6FF" opacity="1.000000" stroke="none" 
	d="
M324.908386,480.014099 
	C321.079041,469.199829 321.088837,458.085876 323.902313,447.246246 
	C327.329620,434.041534 331.751190,421.090607 335.924408,408.088196 
	C336.578522,406.050201 338.194916,404.321014 339.366394,402.449066 
	C341.035828,403.912964 343.060394,405.122406 344.319763,406.880127 
	C356.815491,424.320648 364.903900,443.604034 368.185364,465.712708 
	C368.163635,468.721283 368.151367,470.890503 367.990509,473.048584 
	C367.074310,485.340057 359.256409,493.250397 348.066162,492.999176 
	C338.105560,492.775635 330.044617,488.947998 324.908386,480.014099 
z"/>
<path fill="#234D81" opacity="1.000000" stroke="none" 
	d="
M72.353668,266.628845 
	C70.748322,275.375275 68.376701,283.827484 61.438583,290.014008 
	C55.353828,295.439636 48.262253,299.263092 39.953400,298.879333 
	C30.424900,298.439270 20.938549,297.086517 10.990928,296.140961 
	C2.236143,285.097168 6.876018,273.857208 10.075095,262.640198 
	C10.118298,262.488739 10.227006,262.310059 10.357363,262.235962 
	C17.969416,257.909271 14.807375,252.486893 12.091995,246.912567 
	C10.290313,243.213913 8.721266,239.359924 7.477479,235.439270 
	C3.454628,222.758453 10.723291,206.875275 24.098440,200.125336 
	C29.029156,197.636993 34.683079,196.581665 40.862091,194.952759 
	C45.822479,195.446854 49.974621,195.600510 54.024055,196.326828 
	C63.765388,198.073975 68.206268,202.892471 68.669037,212.297882 
	C68.268349,213.884048 68.265808,215.216583 67.985817,216.488052 
	C66.443138,223.493591 66.111778,231.274261 57.293171,233.796341 
	C56.281124,234.085785 55.283447,234.425461 54.168186,234.776764 
	C57.143780,238.039917 59.850101,241.007767 62.544113,244.359573 
	C64.901047,248.500320 67.270279,252.257095 69.685814,256.430115 
	C70.605972,260.107208 71.479820,263.368011 72.353668,266.628845 
M62.102894,268.296509 
	C62.612537,261.464813 59.356052,256.082977 55.285900,251.105988 
	C50.544941,245.308762 45.569363,239.703690 40.810558,233.920624 
	C36.564167,228.760254 37.638950,225.680435 44.151752,224.252548 
	C45.745533,223.903137 47.476521,223.941269 49.118279,224.089951 
	C56.482407,224.756836 56.483963,224.795609 58.198578,217.518738 
	C58.541744,216.062347 58.810867,214.588562 59.149307,213.130966 
	C59.980934,209.549332 58.442009,207.147766 55.092960,206.307434 
	C51.247051,205.342453 47.292355,204.635284 43.343468,204.289673 
	C31.866354,203.285233 21.586645,208.851959 16.766296,218.404388 
	C12.824246,226.216309 15.155399,236.007401 23.137804,244.820877 
	C26.936508,249.015060 31.000109,252.981155 34.619717,257.320831 
	C36.484425,259.556519 38.075512,262.237701 38.998188,264.983704 
	C40.020954,268.027588 38.611477,270.583374 35.026928,270.016663 
	C30.536669,269.306732 26.084637,268.123901 21.753389,266.721252 
	C18.900585,265.797394 16.631985,265.545258 16.187061,269.084320 
	C15.544972,274.191742 15.141624,279.346222 15.032388,284.489044 
	C15.010574,285.515991 16.685644,287.393616 17.716930,287.497101 
	C24.802925,288.208099 31.945791,288.351471 39.032188,289.059448 
	C50.105019,290.165802 61.077629,279.896118 62.102894,268.296509 
z"/>
<path fill="#234D81" opacity="1.000000" stroke="none" 
	d="
M567.199890,295.950195 
	C565.659485,294.419037 564.119080,292.887909 562.302673,290.741547 
	C561.776672,287.424591 561.526611,284.722809 561.306946,281.608459 
	C561.501282,279.392059 561.794678,277.589142 561.807922,275.784210 
	C561.888000,264.882294 561.904053,253.979904 561.981079,242.686554 
	C562.000488,241.514893 561.980286,240.734360 561.937134,239.488556 
	C561.867981,232.628601 561.821716,226.233887 561.775391,219.839172 
	C562.316345,217.283051 563.235596,214.740753 563.329529,212.168304 
	C563.653137,203.309982 567.282837,198.376572 575.925293,198.051208 
	C585.817749,197.678802 595.834290,197.936996 605.659119,199.092651 
	C618.708740,200.627609 627.300049,208.362579 631.441833,220.904556 
	C632.065247,222.792282 632.745422,224.661209 633.291016,227.405151 
	C633.417236,236.442581 632.757507,244.627457 628.506531,251.689590 
	C624.794922,257.855499 623.565918,263.389679 628.270630,269.348694 
	C628.469788,269.601044 628.737366,269.799408 628.973083,270.022888 
	C630.753174,274.217377 632.533203,278.411865 634.231934,283.429626 
	C633.765503,292.623993 630.901794,296.288055 622.473816,297.568726 
	C617.523865,298.320862 611.750549,299.438751 607.494019,297.655518 
	C600.591431,294.763672 594.655151,297.665833 588.278137,297.824341 
	C581.271912,297.998474 574.227600,296.640594 567.199890,295.950195 
M617.355957,214.192703 
	C613.954712,212.205093 610.732056,209.002213 607.116821,208.471115 
	C598.332397,207.180649 589.372009,206.921738 580.470215,206.643951 
	C572.204407,206.386017 571.185120,207.586212 571.163025,215.673279 
	C571.110168,234.976166 571.058716,254.279099 571.032593,273.582031 
	C571.011536,289.081146 571.028381,289.081207 586.811523,288.932587 
	C591.764282,288.885956 592.988892,287.056183 592.586304,282.040955 
	C592.188293,277.082977 592.499329,272.068085 592.499329,267.078125 
	C593.243530,266.935883 593.987732,266.793640 594.731934,266.651398 
	C596.737122,270.675507 599.184937,274.546112 600.645935,278.758942 
	C602.963135,285.440704 606.014893,290.178467 614.229858,287.822235 
	C615.591003,287.431824 617.199646,287.956512 618.694702,287.971252 
	C625.294922,288.036255 626.630493,286.312225 623.800781,280.357941 
	C621.021790,274.510468 617.770569,268.872070 614.473389,263.291504 
	C612.182617,259.414124 610.841492,256.125244 616.333984,253.842529 
	C617.299011,253.441452 618.030457,252.260742 618.659546,251.302139 
	C626.029846,240.070297 625.688965,225.666092 617.355957,214.192703 
z"/>
<path fill="#204C80" opacity="1.000000" stroke="none" 
	d="
M170.132599,201.717346 
	C179.192978,194.972702 189.220276,196.534409 199.008316,198.111877 
	C203.918594,198.903229 206.808624,203.682114 207.103531,208.709457 
	C207.168594,209.818741 207.587708,210.907242 207.976868,212.811249 
	C208.084351,227.091248 208.144501,240.566376 207.980774,254.038773 
	C207.931808,258.068390 209.428131,259.615509 213.362091,258.714233 
	C214.349487,258.728241 215.336853,258.749725 216.324295,258.755096 
	C226.491516,258.810394 226.491516,258.809662 229.148407,269.720367 
	C229.088669,275.562134 229.131393,280.536713 228.988083,285.505859 
	C228.784622,292.561096 222.817703,298.089752 216.099564,297.990326 
	C206.734283,297.851685 197.272385,297.205658 188.029129,298.289246 
	C181.684982,299.032990 176.369141,298.403381 171.231476,294.926819 
	C167.680008,292.100159 166.833755,288.448059 166.867737,283.963196 
	C166.945740,273.670959 166.085510,263.369751 166.223175,253.080414 
	C166.378448,241.474197 167.244583,229.878433 167.711533,218.274490 
	C167.783737,216.480331 167.374512,214.666809 167.111755,212.475830 
	C168.046478,208.755569 169.057358,205.421722 170.132599,201.717346 
M211.407516,268.138184 
	C210.242966,268.138153 209.078369,268.144562 207.913864,268.137115 
	C198.499268,268.076935 198.849243,269.241302 198.843445,258.858185 
	C198.834991,243.720032 198.793457,228.581818 198.713196,213.443893 
	C198.698166,210.609161 198.816299,207.280792 194.881516,207.030106 
	C190.095718,206.725235 185.242416,206.635162 180.491653,207.141006 
	C179.068375,207.292542 176.933212,209.648529 176.773880,211.167618 
	C176.224731,216.403519 176.323990,221.715881 176.321579,226.999161 
	C176.313049,245.610535 176.353622,264.221985 176.401474,282.833313 
	C176.414291,287.821442 177.991760,289.367889 182.992249,289.107056 
	C191.615875,288.657227 200.235306,288.118561 208.852234,287.552185 
	C212.324722,287.323975 217.332596,288.170929 218.854401,286.282471 
	C220.688873,284.006012 219.590332,279.342010 219.706482,275.709778 
	C219.948380,268.144806 219.933502,268.144318 211.407516,268.138184 
z"/>
<path fill="#224D81" opacity="1.000000" stroke="none" 
	d="
M155.891037,229.661560 
	C155.610764,234.172882 155.641586,238.371277 154.941696,242.444077 
	C152.970551,253.914185 148.985992,264.337463 137.622162,269.812195 
	C133.955566,271.578674 129.875259,272.486420 125.497238,273.949799 
	C125.072914,277.747986 124.378723,282.104462 124.146561,286.485443 
	C123.817535,292.694489 120.305367,296.179718 114.594147,296.506622 
	C106.295258,296.981659 97.881577,299.397125 89.020172,295.831177 
	C86.929688,292.136658 84.486877,288.820862 84.134987,285.296326 
	C83.235802,276.289856 83.268265,267.190369 83.189827,257.804016 
	C83.553276,249.443039 83.654968,241.406143 83.829987,232.904236 
	C83.585838,229.285004 83.268356,226.130814 83.048721,222.654388 
	C83.334068,221.924301 83.521561,221.516403 83.962845,220.956207 
	C84.116570,219.531235 84.016502,218.258591 83.886116,216.529663 
	C83.507614,209.492371 83.284210,202.957367 90.142044,199.034973 
	C101.854347,198.931931 113.571648,198.575272 125.277390,198.805634 
	C134.744598,198.991943 142.268600,203.462646 148.291870,211.067871 
	C151.018768,217.204971 153.443649,223.248123 155.891037,229.661560 
M121.449486,263.992432 
	C129.011322,263.504395 135.982040,261.644806 140.534073,254.943054 
	C148.120468,243.773819 147.734161,226.293533 139.888397,215.271194 
	C136.728241,210.831573 132.645767,207.639282 127.211372,207.286118 
	C117.446205,206.651520 107.648132,206.423355 97.860207,206.289688 
	C94.123032,206.238647 92.876961,208.777954 92.881599,212.339569 
	C92.897408,224.488098 92.698036,236.636841 92.705048,248.785446 
	C92.711388,259.772034 92.714478,270.763580 93.045815,281.743073 
	C93.218925,287.479462 94.399925,288.252228 100.192062,287.894928 
	C103.840576,287.669861 107.475677,287.081024 111.122688,287.022583 
	C114.196762,286.973297 115.276070,285.584808 115.190224,282.731506 
	C115.060074,278.405212 115.251129,274.054901 114.863083,269.754730 
	C114.460190,265.290100 116.294258,263.577759 121.449486,263.992432 
z"/>
<path fill="#2D65AA" opacity="1.000000" stroke="none" 
	d="
M64.888374,453.385559 
	C67.940361,456.011902 70.641220,459.453400 74.027641,461.973755 
	C88.437355,472.698303 104.391930,472.117584 120.547478,467.241852 
	C142.271317,460.685577 159.164917,446.873138 173.863968,430.179962 
	C189.943710,411.918823 201.440598,390.846527 211.329361,368.720581 
	C218.316849,353.086121 226.087875,337.767883 238.743958,325.657074 
	C238.984375,325.427002 239.227386,325.199554 239.465225,324.966797 
	C243.963684,320.564972 249.202072,317.222046 255.535370,319.585144 
	C261.412781,321.778137 262.983734,327.584106 263.987030,333.681702 
	C255.393097,326.744720 249.310684,326.795105 240.698914,334.946106 
	C229.743958,345.314941 223.012680,358.592102 216.217560,371.779999 
	C208.447067,386.860901 201.580017,402.498383 192.705750,416.898987 
	C177.903534,440.919067 158.818832,460.996643 132.700073,473.142944 
	C118.588280,479.705536 103.840454,482.412689 88.511574,477.838684 
	C76.290298,474.191986 68.195641,466.264557 64.888374,453.385559 
z"/>
<path fill="#2D66AA" opacity="1.000000" stroke="none" 
	d="
M422.031006,347.717102 
	C419.427277,344.599365 418.852325,340.851959 421.248749,337.378326 
	C423.688202,333.842255 427.587677,334.438385 430.781555,335.884552 
	C443.758209,341.760101 456.775635,347.592438 469.440887,354.097137 
	C485.937653,362.569672 501.181000,373.660675 519.845581,377.451996 
	C531.384827,379.795959 543.030090,380.327118 554.389832,377.226715 
	C573.579346,371.989258 584.067383,358.769714 587.060547,338.885620 
	C590.381104,345.852264 588.888000,353.236450 586.045044,360.191711 
	C578.231567,379.307709 562.903687,387.724487 543.045654,388.781189 
	C523.772644,389.806732 506.614075,383.083954 490.039215,373.978363 
	C473.307373,364.786530 456.342316,356.010437 439.328247,347.349152 
	C436.176514,345.744720 432.330414,345.065643 428.758942,344.889801 
	C426.635468,344.785187 424.422546,346.497375 422.031006,347.717102 
z"/>
<path fill="#39B6FE" opacity="1.000000" stroke="none" 
	d="
M466.131012,391.016876 
	C466.074432,390.688538 466.032410,390.356903 465.959198,390.032318 
	C463.813416,380.518768 464.769562,379.539581 474.004700,382.590363 
	C486.253754,386.636749 497.817169,392.061249 508.000214,400.172546 
	C514.455505,405.314575 518.502686,411.672211 518.558228,420.695496 
	C514.776123,424.511292 511.791718,428.749268 507.711945,430.721771 
	C499.080078,434.895142 487.949127,430.411224 481.189453,421.348022 
	C480.073456,419.851654 478.321625,418.829498 476.863647,417.588196 
	C476.742218,417.276917 476.727020,416.960541 477.075775,416.199707 
	C473.599365,407.512512 469.865173,399.264679 466.131012,391.016876 
z"/>
<path fill="#3AB6FE" opacity="1.000000" stroke="none" 
	d="
M132.270309,76.051048 
	C128.518921,64.764420 129.697754,59.594090 138.100281,54.153912 
	C145.926971,49.086563 155.140350,50.621140 161.797119,58.282864 
	C169.613159,67.278915 173.426895,78.328606 176.807632,89.477142 
	C178.339935,94.530136 179.111206,99.813904 179.761719,105.472092 
	C176.275543,105.181137 173.066437,104.830803 170.266861,103.570648 
	C155.726654,97.025703 142.348419,88.793541 132.270309,76.051048 
z"/>
<path fill="#38B6FE" opacity="1.000000" stroke="none" 
	d="
M81.224632,363.117950 
	C80.759689,360.180664 80.232574,357.251648 79.841095,354.304596 
	C78.508240,344.270996 85.416504,338.354218 92.452156,335.616272 
	C102.331268,331.771851 112.842781,331.219574 123.344719,331.603668 
	C128.147232,331.779327 132.923935,332.581635 137.721512,332.992584 
	C142.965088,333.441772 143.188293,333.844452 140.421722,338.522949 
	C140.085861,339.090912 139.865906,339.727417 139.205551,340.807709 
	C136.628433,343.287811 134.394730,345.247375 132.255280,347.304901 
	C124.186134,355.065125 115.312164,361.636292 104.944878,366.046631 
	C96.464378,369.654327 88.317123,370.691254 81.224632,363.117950 
z"/>
<path fill="#39B6FE" opacity="1.000000" stroke="none" 
	d="
M500.295593,189.053802 
	C498.879517,188.276962 497.463470,187.500137 494.718384,185.994232 
	C498.778931,182.192154 502.054016,178.532318 505.903442,175.635834 
	C516.148682,167.926971 526.684631,160.642960 539.548035,157.798630 
	C552.683716,154.894119 559.596191,160.154984 560.185669,174.465729 
	C558.184448,183.364670 553.100464,188.391937 545.085815,190.139969 
	C540.431091,191.155182 535.585693,192.194778 530.892456,191.950027 
	C520.670959,191.416946 510.491974,190.068817 500.295593,189.053802 
z"/>
<path fill="#2D66AA" opacity="1.000000" stroke="none" 
	d="
M457.855438,189.612946 
	C453.857330,182.718277 456.470551,176.069305 459.943787,169.696274 
	C464.804047,160.778122 472.787262,155.065689 481.237274,149.934952 
	C498.606110,139.388870 518.116150,135.309677 537.592102,130.919632 
	C548.225098,128.522858 558.919250,125.812851 569.027527,121.827782 
	C580.533875,117.291534 585.330322,107.309753 586.084351,95.284111 
	C586.188477,93.623604 586.226013,91.958923 586.247314,89.899460 
	C586.800354,94.747269 588.023071,100.008751 587.880676,105.233025 
	C587.498108,119.266373 580.221741,129.010696 567.076050,133.382584 
	C556.535645,136.888031 545.559998,139.130051 534.714172,141.661407 
	C518.806091,145.374268 502.877289,148.936722 488.322601,156.792007 
	C477.671387,162.540558 467.466522,168.824677 461.564453,179.973724 
	C460.023926,182.883759 459.152649,186.148087 457.855438,189.612946 
z"/>
<path fill="#2B64AA" opacity="1.000000" stroke="none" 
	d="
M56.157326,155.583099 
	C64.634026,168.942123 78.443710,172.906494 93.022408,174.929764 
	C100.377724,175.950531 107.948540,175.333191 115.349403,176.129974 
	C128.149933,177.508087 141.053360,178.667160 153.605194,181.357224 
	C161.839340,183.121933 168.147003,188.653732 168.961487,198.591125 
	C160.212280,190.522415 149.243774,187.679428 137.549408,186.879532 
	C122.617828,185.858200 107.633377,185.415283 92.751640,183.925034 
	C81.868973,182.835236 71.142532,179.751724 63.689060,171.160309 
	C60.095650,167.018265 58.566147,161.085678 56.157326,155.583099 
z"/>
<path fill="#2D65AA" opacity="1.000000" stroke="none" 
	d="
M267.487183,387.585510 
	C273.886719,395.602234 281.119537,397.560211 290.705414,393.153229 
	C306.242615,386.010254 314.499786,372.945679 318.921600,357.145386 
	C320.518555,351.438934 320.973511,345.416443 322.022614,339.551239 
	C322.401306,337.434235 322.822998,335.297119 323.516174,333.268677 
	C328.632050,318.297791 337.645142,316.197296 348.909882,327.328583 
	C353.797485,332.158295 358.171783,337.316437 359.009064,344.941986 
	C356.570923,342.674805 354.234833,339.926971 351.741913,337.329681 
	C350.373016,335.903473 348.852173,334.561401 347.207428,333.471802 
	C337.449371,327.007263 330.464630,328.825775 326.634674,339.848846 
	C324.161041,346.968292 323.585175,354.731995 321.949493,362.160889 
	C318.592499,377.407196 311.775391,390.572418 298.538361,399.644287 
	C296.365143,401.133636 293.942413,402.350525 291.488068,403.322205 
	C280.746307,407.574768 271.895813,403.265015 268.539703,392.260162 
	C268.106018,390.837952 267.791473,389.379333 267.487183,387.585510 
z"/>
<path fill="#2862A8" opacity="1.000000" stroke="none" 
	d="
M561.276550,282.021057 
	C561.526611,284.722809 561.776672,287.424591 562.030273,290.558899 
	C559.054443,291.032074 555.296387,289.998474 553.323975,291.428284 
	C551.505859,292.746185 551.630737,296.716919 550.846802,299.504242 
	C550.578003,300.459961 550.148926,301.370605 549.710693,302.702789 
	C545.196289,309.059692 539.337830,310.199585 532.187805,309.389404 
	C526.019897,308.690521 519.647522,309.108307 513.430359,309.706390 
	C505.565704,310.462921 498.217773,309.891296 492.826935,303.465057 
	C491.379120,301.739166 491.391449,298.788300 491.035309,296.189209 
	C497.713867,299.554138 504.456238,299.344482 511.468445,298.469025 
	C516.685608,297.817627 522.091919,297.627014 527.305420,298.207153 
	C540.497559,299.675293 547.236145,294.311249 547.983093,281.004791 
	C548.103699,278.857147 548.113892,276.703308 548.567627,274.267792 
	C551.487488,279.080780 554.128723,284.003632 561.276550,282.021057 
z"/>
<path fill="#2C62A6" opacity="1.000000" stroke="none" 
	d="
M567.172607,296.343567 
	C574.227600,296.640594 581.271912,297.998474 588.278137,297.824341 
	C594.655151,297.665833 600.591431,294.763672 607.494019,297.655518 
	C611.750549,299.438751 617.523865,298.320862 622.473816,297.568726 
	C630.901794,296.288055 633.765503,292.623993 634.254089,283.793030 
	C635.758911,287.677643 637.818909,291.936249 638.398682,296.387665 
	C639.166809,302.284332 634.172607,308.182220 627.976196,307.958679 
	C620.245361,307.679779 612.154846,310.769562 604.679260,306.122894 
	C603.760803,305.552002 601.802429,306.114197 600.567505,306.679230 
	C591.854614,310.665558 582.976685,309.291962 574.325439,307.035614 
	C569.680603,305.824219 567.309448,301.734955 567.172607,296.343567 
z"/>
<path fill="#3CB2F9" opacity="1.000000" stroke="none" 
	d="
M561.306946,281.608459 
	C554.128723,284.003632 551.487488,279.080780 548.675415,273.799438 
	C548.318604,272.662476 548.246704,271.709351 548.422607,270.066437 
	C549.897583,252.150452 551.124695,234.924225 552.351807,217.697998 
	C555.234863,218.455002 558.117981,219.212006 561.388184,219.904083 
	C561.821716,226.233887 561.867981,232.628601 561.725708,239.511902 
	C561.537231,240.000473 561.111816,240.033646 561.035400,239.570557 
	C560.958923,234.478088 560.958923,229.848694 560.958923,224.448593 
	C553.970886,227.470581 555.083008,232.381012 554.897278,236.888489 
	C554.719788,241.193710 557.753174,241.946793 561.103760,242.884995 
	C561.569946,242.988571 561.755737,243.033127 561.941467,243.077667 
	C561.904053,253.979904 561.888000,264.882294 561.807922,275.784210 
	C561.794678,277.589142 561.501282,279.392059 561.306946,281.608459 
z"/>
<path fill="#2D66AA" opacity="1.000000" stroke="none" 
	d="
M81.161156,363.509491 
	C88.317123,370.691254 96.464378,369.654327 104.944878,366.046631 
	C115.312164,361.636292 124.186134,355.065125 132.255280,347.304901 
	C134.394730,345.247375 136.628433,343.287811 139.093750,341.196289 
	C141.014725,341.747223 142.660812,342.385162 145.733704,343.576050 
	C140.860672,349.054871 137.176743,354.489960 132.278229,358.405609 
	C124.649368,364.503754 116.382927,369.881927 107.997185,374.916504 
	C104.741852,376.870941 100.464485,377.703003 96.587700,377.928345 
	C86.841660,378.494781 82.192383,374.006775 81.161156,363.509491 
z"/>
<path fill="#2F67AB" opacity="1.000000" stroke="none" 
	d="
M377.045776,404.326050 
	C378.447693,404.721619 380.183655,405.177521 381.077667,406.302551 
	C390.367371,417.992950 409.825256,424.147644 425.118347,415.092041 
	C434.077789,409.786804 437.858887,401.967010 438.127808,391.563171 
	C442.056458,404.059998 438.988678,416.511688 430.286835,422.829132 
	C418.752197,431.203125 401.807556,430.970856 390.065735,422.404205 
	C383.824005,417.850403 380.080872,411.534241 377.045776,404.326050 
z"/>
<path fill="#38B3FB" opacity="1.000000" stroke="none" 
	d="
M89.794479,198.861633 
	C83.284210,202.957367 83.507614,209.492371 83.651955,216.806900 
	C83.535095,218.729782 83.622078,219.919144 83.709061,221.108521 
	C83.521561,221.516403 83.334068,221.924301 82.701324,222.700684 
	C79.163567,224.737808 76.071060,226.406433 72.311378,228.435059 
	C73.200447,221.852203 73.931641,216.245071 68.939102,212.016083 
	C68.206268,202.892471 63.765388,198.073975 54.024055,196.326828 
	C49.974621,195.600510 45.822479,195.446854 41.275814,194.940704 
	C47.827457,194.413422 54.900528,193.114548 61.793552,193.754608 
	C71.083946,194.617294 80.235672,196.973190 89.794479,198.861633 
z"/>
<path fill="#2D66AA" opacity="1.000000" stroke="none" 
	d="
M324.886719,480.418793 
	C330.044617,488.947998 338.105560,492.775635 348.066162,492.999176 
	C359.256409,493.250397 367.074310,485.340057 367.990509,473.048584 
	C368.151367,470.890503 368.163635,468.721283 368.183228,466.186279 
	C368.468475,472.654022 369.638641,479.577118 368.948578,486.309540 
	C368.127411,494.320679 363.317078,500.239471 354.995117,501.887634 
	C345.874969,503.693878 337.094604,502.474609 331.180603,494.527283 
	C328.242554,490.579132 326.918976,485.429565 324.886719,480.418793 
z"/>
<path fill="#2C65AA" opacity="1.000000" stroke="none" 
	d="
M500.173767,189.416748 
	C510.491974,190.068817 520.670959,191.416946 530.892456,191.950027 
	C535.585693,192.194778 540.431091,191.155182 545.085815,190.139969 
	C553.100464,188.391937 558.184448,183.364670 560.079834,174.861542 
	C565.008606,183.259720 560.759338,194.203308 550.726318,198.495575 
	C549.056580,199.209869 547.339111,199.812363 545.338501,200.741302 
	C542.219971,197.232651 538.269714,195.896088 533.771423,196.009430 
	C522.172607,196.301682 510.576141,196.686722 498.518860,197.021088 
	C498.723267,194.598221 499.387573,192.188965 500.173767,189.416748 
z"/>
<path fill="#37B1F9" opacity="1.000000" stroke="none" 
	d="
M484.763367,213.193924 
	C485.371429,224.778732 485.582611,236.288498 485.373108,248.360504 
	C481.745911,249.181732 478.539429,249.440720 474.980072,249.728195 
	C474.980072,240.864319 475.299744,231.593216 474.808929,222.365234 
	C474.634094,219.078568 472.493164,215.896454 471.249695,212.666626 
	C471.086426,211.374786 470.923157,210.082932 470.687988,208.402588 
	C475.199493,209.715683 479.782990,211.417282 484.763367,213.193924 
z"/>
<path fill="#2D66AA" opacity="1.000000" stroke="none" 
	d="
M297.907684,90.248322 
	C299.779755,91.865692 301.685577,93.803123 303.419342,95.883888 
	C306.048859,99.039642 308.225037,98.306778 309.930054,95.123917 
	C320.299316,75.766884 329.159119,55.900860 330.187531,33.094341 
	C333.775482,42.085094 331.927582,51.456516 329.636810,60.637619 
	C325.833313,75.881317 319.828583,90.310585 312.091705,103.999001 
	C309.601868,108.404091 307.604034,108.537544 305.050049,104.184372 
	C302.465057,99.778427 300.244537,95.158669 297.907684,90.248322 
z"/>
<path fill="#2E67AB" opacity="1.000000" stroke="none" 
	d="
M132.237457,76.445328 
	C142.348419,88.793541 155.726654,97.025703 170.266861,103.570648 
	C173.066437,104.830803 176.275543,105.181137 179.714935,105.891403 
	C180.507309,108.852783 180.880478,111.873940 181.253662,114.895096 
	C178.125824,114.304115 174.758148,114.264687 171.911591,113.026855 
	C159.455719,107.610359 147.907455,100.573624 138.948959,90.251534 
	C135.770035,86.588730 134.400284,81.355766 132.237457,76.445328 
z"/>
<path fill="#2D66AA" opacity="1.000000" stroke="none" 
	d="
M476.785522,417.992615 
	C478.321625,418.829498 480.073456,419.851654 481.189453,421.348022 
	C487.949127,430.411224 499.080078,434.895142 507.711945,430.721771 
	C511.791718,428.749268 514.776123,424.511292 518.517822,421.093445 
	C521.463623,427.611053 520.434387,432.050507 515.078674,436.848022 
	C509.147491,442.160980 501.334290,443.376160 494.836670,439.924683 
	C485.914734,435.185486 480.989471,427.056427 476.785522,417.992615 
z"/>
<path fill="#2862A8" opacity="1.000000" stroke="none" 
	d="
M552.220947,217.381439 
	C551.124695,234.924225 549.897583,252.150452 548.415039,269.703552 
	C546.658630,267.345886 545.121643,264.680267 543.688477,261.959961 
	C543.419189,261.448853 543.502075,260.716949 543.527588,260.091217 
	C543.842651,252.378784 544.178406,244.667221 544.504944,236.955276 
	C544.532349,236.308456 544.452026,235.647049 544.557617,235.015106 
	C545.806641,227.536621 547.081604,220.062485 548.626587,212.304138 
	C549.965637,213.702362 551.027893,215.383621 552.220947,217.381439 
z"/>
<path fill="#3065A7" opacity="1.000000" stroke="none" 
	d="
M629.181946,269.694458 
	C628.737366,269.799408 628.469788,269.601044 628.270630,269.348694 
	C623.565918,263.389679 624.794922,257.855499 628.506531,251.689590 
	C632.757507,244.627457 633.417236,236.442581 633.322388,227.765625 
	C640.721008,240.388840 637.682129,253.027222 631.611816,265.506409 
	C630.964111,266.838013 630.135498,268.081604 629.181946,269.694458 
z"/>
<path fill="#3670B1" opacity="1.000000" stroke="none" 
	d="
M374.774689,179.293091 
	C371.092834,167.938629 373.205048,156.254623 375.301605,144.544708 
	C376.112610,140.014999 376.564026,135.420914 377.194519,130.405212 
	C380.342407,137.522629 378.838623,145.121521 377.692993,152.829498 
	C376.410980,161.455200 375.758057,170.174423 374.774689,179.293091 
z"/>
<path fill="#4E8FCB" opacity="1.000000" stroke="none" 
	d="
M466.065643,391.412598 
	C469.865173,399.264679 473.599365,407.512512 477.061188,415.959564 
	C470.477051,409.245117 468.645599,400.346436 466.065643,391.412598 
z"/>
<path fill="#4E8FCB" opacity="1.000000" stroke="none" 
	d="
M210.988525,123.364594 
	C213.676025,129.831863 216.332352,136.701752 219.005203,143.917419 
	C216.333618,137.431198 213.645493,130.599213 210.988525,123.364594 
z"/>
<path fill="#2D65AA" opacity="1.000000" stroke="none" 
	d="
M63.948223,450.329163 
	C64.317497,450.784271 64.648888,451.583221 64.982178,452.724792 
	C64.626167,452.269287 64.268250,451.471100 63.948223,450.329163 
z"/>
<path fill="#2D65AA" opacity="1.000000" stroke="none" 
	d="
M263.890503,334.278564 
	C264.211823,334.444489 264.500610,334.903442 264.841766,335.640930 
	C264.548737,335.470154 264.203369,335.020905 263.890503,334.278564 
z"/>
<path fill="#4E8FCB" opacity="1.000000" stroke="none" 
	d="
M210.533752,122.270935 
	C210.684387,122.245140 210.832382,122.432510 210.982208,122.832657 
	C210.826294,122.864563 210.675308,122.677444 210.533752,122.270935 
z"/>
<path fill="#204C80" opacity="1.000000" stroke="none" 
	d="
M327.448730,246.873962 
	C325.651184,242.232529 323.160370,237.731628 322.185608,232.923370 
	C319.214600,218.268265 327.498108,203.640015 342.011261,197.726776 
	C352.989868,193.253677 364.240448,194.373245 375.211639,197.903717 
	C381.742889,200.005432 384.392365,205.446365 385.025238,212.763184 
	C382.325714,222.243607 383.246185,233.343857 369.661072,234.411331 
	C373.146362,238.834488 375.987793,242.440506 378.829224,246.046539 
	C382.168915,252.790359 385.508636,259.534180 388.610901,266.897034 
	C387.880005,269.601593 387.515137,271.727783 386.870941,273.765686 
	C383.983978,282.898376 379.375122,290.580750 370.237427,294.966888 
	C355.203094,302.183411 340.319183,298.834991 325.374512,294.895813 
	C323.965851,291.141632 321.755341,287.470215 321.357056,283.611755 
	C320.887787,279.065308 321.933929,274.351105 322.421906,269.720093 
	C322.994934,264.281982 325.752747,260.043365 330.497009,256.346313 
	C332.471252,255.959763 333.845612,255.845886 335.219971,255.731995 
	C335.521149,255.309906 335.822327,254.887802 336.123474,254.465714 
	C333.231903,251.935135 330.340302,249.404556 327.448730,246.873962 
M347.696014,288.982971 
	C352.800934,288.640930 358.358673,289.485504 362.928650,287.741638 
	C378.724609,281.713959 382.728882,265.741821 372.240387,252.405487 
	C367.300018,246.123657 361.936218,240.176437 356.836395,234.017883 
	C352.480621,228.757828 353.701874,225.410843 360.448669,224.167480 
	C362.057434,223.870987 363.785126,223.951324 365.425385,224.141113 
	C372.379822,224.945801 372.391693,224.988632 374.024292,218.173981 
	C374.489532,216.232086 375.394073,214.161255 375.073212,212.328857 
	C374.729218,210.364304 373.559326,207.475052 372.082336,206.979706 
	C367.735626,205.521835 363.086395,204.548172 358.504669,204.290833 
	C346.995880,203.644409 337.721893,208.166733 332.689880,218.702911 
	C327.966003,228.594009 332.157257,237.152466 338.884338,244.680145 
	C342.657684,248.902557 346.723541,252.868393 350.403381,257.167419 
	C352.207001,259.274536 353.874695,261.717346 354.807465,264.296265 
	C356.036346,267.694000 354.930023,270.589752 350.661285,270.025360 
	C346.644012,269.494232 342.588196,268.574524 338.799988,267.156250 
	C333.627747,265.219788 332.601044,265.479523 331.882019,270.821075 
	C331.393890,274.447266 331.359894,278.140045 330.772827,281.746063 
	C330.024139,286.344940 331.787842,287.990234 336.349670,287.900085 
	C339.806946,287.831818 343.280396,288.582855 347.696014,288.982971 
z"/>
<path fill="#204C81" opacity="1.000000" stroke="none" 
	d="
M239.382431,294.889221 
	C232.207993,287.804840 235.951019,279.734619 237.337585,271.899017 
	C240.915527,251.679642 244.701004,231.495087 248.056900,211.239197 
	C249.486359,202.611099 255.410187,196.989639 264.279663,197.054382 
	C270.210449,197.097687 276.141174,197.158188 282.072021,197.185959 
	C292.171967,197.233246 296.346893,200.431686 299.221466,210.282593 
	C299.778351,212.190872 300.503326,214.050095 301.110870,216.763397 
	C301.064850,218.758850 300.872437,219.957321 301.080444,221.081711 
	C304.535339,239.759491 307.926788,258.450317 311.586945,277.088226 
	C313.184998,285.225616 310.833405,293.847961 304.968506,295.747131 
	C295.547272,298.797913 285.887573,300.060303 276.479767,295.091339 
	C275.491089,294.569153 273.851166,294.305969 272.936768,294.765320 
	C261.739929,300.390228 250.579926,299.088531 239.382431,294.889221 
M285.856934,287.986877 
	C289.017609,287.973511 292.183075,288.066559 295.338043,287.925415 
	C302.712677,287.595459 303.800995,285.819946 302.360321,278.488678 
	C299.607849,264.482056 297.121063,250.423065 294.542816,236.382355 
	C293.072083,228.373047 291.616486,220.360809 290.197998,212.342117 
	C289.546692,208.660538 287.523895,206.960907 283.692017,206.933075 
	C277.226044,206.886139 270.762634,206.391479 264.297363,206.373886 
	C260.531006,206.363632 258.162415,208.199600 257.757294,212.367203 
	C257.227264,217.819748 256.532440,223.277222 255.511581,228.657257 
	C252.164825,246.295425 248.616898,263.895294 245.194305,281.519196 
	C244.182098,286.731415 245.128494,287.893188 250.289185,287.972168 
	C254.447220,288.035828 258.618317,287.797821 262.762451,288.046234 
	C266.052277,288.243469 267.282715,286.517212 267.692169,283.759521 
	C267.910400,282.289368 267.830719,280.773010 267.858246,279.277008 
	C267.933105,275.203552 268.926575,272.380859 274.006653,272.185455 
	C278.958618,271.994934 279.908569,274.520569 279.959961,278.494690 
	C279.983551,280.318604 280.262207,282.138458 280.404022,283.961761 
	C280.622864,286.775543 282.051788,288.203979 285.856934,287.986877 
z"/>
<path fill="#2762A8" opacity="1.000000" stroke="none" 
	d="
M471.165405,213.159698 
	C472.493164,215.896454 474.634094,219.078568 474.808929,222.365234 
	C475.299744,231.593216 474.980072,240.864319 474.980072,249.728195 
	C478.539429,249.440720 481.745911,249.181732 485.366028,248.810211 
	C485.802979,251.687195 485.826324,254.676697 485.374573,258.023682 
	C478.724609,257.822113 475.515961,260.477295 474.936401,267.306549 
	C474.408569,273.526581 474.392487,279.790070 474.150818,286.034393 
	C474.302338,288.166534 474.264862,290.332642 474.640717,292.424469 
	C475.788330,298.812256 470.300629,307.217224 463.760040,307.996521 
	C459.054443,308.557098 454.120148,308.720917 449.481171,307.929138 
	C443.777344,306.955627 438.617126,306.739563 432.722809,308.096039 
	C426.536865,309.519653 419.520538,308.435760 413.069885,307.298035 
	C406.651062,306.165894 403.290039,301.421448 403.166504,294.331787 
	C413.468140,299.271484 423.760254,299.562958 434.732117,295.610352 
	C437.901337,294.468628 442.300323,297.132294 446.188110,297.509308 
	C453.542023,298.222351 461.255035,299.909149 466.814056,292.696960 
	C469.506409,289.203949 470.721802,285.590271 470.324310,280.872803 
	C469.757568,274.146973 470.478363,267.311462 470.671600,260.523438 
	C470.747040,257.872375 470.965271,255.223450 470.977661,252.572906 
	C471.038208,239.599640 471.051300,226.626160 471.165405,213.159698 
z"/>
<path fill="#2661A8" opacity="1.000000" stroke="none" 
	d="
M239.291138,295.277283 
	C250.579926,299.088531 261.739929,300.390228 272.936768,294.765320 
	C273.851166,294.305969 275.491089,294.569153 276.479767,295.091339 
	C285.887573,300.060303 295.547272,298.797913 304.968506,295.747131 
	C310.833405,293.847961 313.184998,285.225616 311.586945,277.088226 
	C307.926788,258.450317 304.535339,239.759491 301.080444,221.081711 
	C300.872437,219.957321 301.064850,218.758850 301.154236,217.135773 
	C302.471344,220.326080 304.154816,223.890442 304.863678,227.639099 
	C308.555725,247.163574 311.290741,266.899628 315.780487,286.231873 
	C318.750122,299.018768 313.569641,308.587677 298.444275,308.831604 
	C292.021057,308.935211 285.439423,309.688080 279.685486,305.479706 
	C279.032074,305.001831 277.275940,305.672852 276.205566,306.179657 
	C266.300995,310.869141 256.115448,309.912537 246.248001,306.778900 
	C241.713409,305.338806 239.262054,300.835968 239.291138,295.277283 
z"/>
<path fill="#2560A7" opacity="1.000000" stroke="none" 
	d="
M325.305359,295.291443 
	C340.319183,298.834991 355.203094,302.183411 370.237427,294.966888 
	C379.375122,290.580750 383.983978,282.898376 386.870941,273.765686 
	C387.515137,271.727783 387.880005,269.601593 388.643311,267.267792 
	C393.854065,274.511322 392.547943,282.357788 389.355621,289.791809 
	C384.026184,302.202515 374.003204,309.051910 360.691559,309.654114 
	C351.986298,310.047913 343.168640,308.725006 334.449432,307.743469 
	C329.494995,307.185730 325.787018,301.848511 325.305359,295.291443 
z"/>
<path fill="#2660A7" opacity="1.000000" stroke="none" 
	d="
M171.172134,295.353149 
	C176.369141,298.403381 181.684982,299.032990 188.029129,298.289246 
	C197.272385,297.205658 206.734283,297.851685 216.099564,297.990326 
	C222.817703,298.089752 228.784622,292.561096 228.988083,285.505859 
	C229.131393,280.536713 229.088669,275.562134 229.222839,270.090881 
	C230.839157,273.358185 233.311600,277.038727 233.661789,280.911194 
	C234.189117,286.742279 233.726578,292.788452 232.776001,298.594421 
	C231.692673,305.211121 227.546188,307.849396 220.751389,308.112183 
	C209.644882,308.541718 198.539474,309.094788 187.450119,309.840973 
	C179.230316,310.394073 171.084305,303.566101 171.172134,295.353149 
z"/>
<path fill="#F7F9FC" opacity="1.000000" stroke="none" 
	d="
M474.466797,286.144958 
	C474.392487,279.790070 474.408569,273.526581 474.936401,267.306549 
	C475.515961,260.477295 478.724609,257.822113 485.302216,258.449463 
	C486.219879,265.211212 486.865784,271.898071 487.201569,278.600433 
	C487.408630,282.733673 487.142853,286.890625 487.143250,291.498749 
	C483.059021,290.058868 478.920898,288.157196 474.466797,286.144958 
z"/>
<path fill="#2660A7" opacity="1.000000" stroke="none" 
	d="
M378.868103,245.687439 
	C375.987793,242.440506 373.146362,238.834488 369.661072,234.411331 
	C383.246185,233.343857 382.325714,222.243607 385.082916,213.150925 
	C390.183929,216.245697 389.233154,221.389862 388.647369,226.233902 
	C387.741486,233.724487 385.387817,240.616013 378.868103,245.687439 
z"/>
<path fill="#2664A9" opacity="1.000000" stroke="none" 
	d="
M213.226929,258.286072 
	C209.428131,259.615509 207.931808,258.068390 207.980774,254.038773 
	C208.144501,240.566376 208.084351,227.091248 208.205551,213.120346 
	C213.080505,215.568939 212.575058,220.622314 212.738388,225.046494 
	C213.141739,235.973099 213.009003,246.919479 213.226929,258.286072 
z"/>
<path fill="#2664A9" opacity="1.000000" stroke="none" 
	d="
M327.367645,247.234009 
	C330.340302,249.404556 333.231903,251.935135 336.123474,254.465714 
	C335.822327,254.887802 335.521149,255.309906 335.219971,255.731995 
	C333.845612,255.845886 332.471252,255.959763 330.745056,256.105896 
	C329.357697,253.290115 328.322144,250.442078 327.367645,247.234009 
z"/>
<path fill="#F3F4F5" opacity="1.000000" stroke="none" 
	d="
M460.857849,265.849762 
	C460.877838,272.118469 461.115479,277.931946 460.609222,283.679871 
	C460.475555,285.197510 458.198730,286.734253 456.607574,287.828064 
	C455.809509,288.376648 454.339935,287.925476 453.175537,287.967499 
	C439.821777,288.449432 438.671906,285.245880 440.171234,274.933899 
	C440.830963,270.396271 440.043121,265.640198 439.831879,260.986969 
	C439.711823,258.342072 438.737946,256.631287 435.560822,256.792969 
	C432.562531,256.945587 430.189941,257.505035 430.167511,261.107788 
	C430.123993,268.099335 429.927979,275.100006 430.211243,282.079987 
	C430.401245,286.761505 428.546783,288.389160 424.045990,288.017120 
	C420.737762,287.743683 417.381439,288.092773 414.062622,287.895020 
	C410.363190,287.674561 408.625732,285.992249 408.718140,281.786072 
	C409.002502,268.844269 408.839935,255.891846 408.791840,242.943756 
	C408.753540,232.645004 408.646729,222.346344 408.532257,212.048065 
	C408.488403,208.105484 410.350769,206.219299 414.303040,206.254410 
	C418.131714,206.288437 421.964600,206.292908 425.789764,206.151596 
	C429.557312,206.012421 430.713928,207.830688 430.552063,211.382233 
	C430.264191,217.697830 430.212891,224.026077 430.167419,230.349792 
	C430.152252,232.461197 430.457489,234.574905 430.611328,236.622116 
	C438.908051,237.191483 439.960785,236.545212 440.469208,229.140671 
	C440.900208,222.863281 440.859955,216.545471 440.815979,210.247025 
	C440.794556,207.173233 442.126312,206.100281 445.026031,206.181915 
	C448.519470,206.280258 452.029175,206.353867 455.512115,206.130615 
	C459.840179,205.853195 461.446289,207.645187 461.372192,211.966171 
	C461.066864,229.765503 460.970490,247.568405 460.857849,265.849762 
z"/>
<path fill="#36B1F9" opacity="1.000000" stroke="none" 
	d="
M82.928070,258.128082 
	C83.268265,267.190369 83.235802,276.289856 84.134987,285.296326 
	C84.486877,288.820862 86.929688,292.136658 88.615891,295.823547 
	C89.884361,299.810364 90.957153,303.521149 92.271347,308.066956 
	C80.312897,308.066956 68.099998,308.066956 55.309399,308.066956 
	C74.532219,293.990936 80.140823,280.649872 72.663208,266.807678 
	C71.479820,263.368011 70.605972,260.107208 70.107956,256.533600 
	C74.631889,256.856567 78.779984,257.492310 82.928070,258.128082 
z"/>
<path fill="#F3F4F5" opacity="1.000000" stroke="none" 
	d="
M533.621277,205.603882 
	C537.946777,205.849289 539.169739,207.913361 538.693665,211.650330 
	C538.254395,215.098709 538.087280,218.612244 538.170715,222.088181 
	C538.254333,225.570465 536.633118,227.014816 533.403625,226.871857 
	C529.261230,226.688492 525.116211,226.441757 520.990601,226.036087 
	C517.132263,225.656693 516.920776,228.111816 517.224976,230.766235 
	C517.499939,233.166077 515.615662,236.925339 520.718445,236.711426 
	C523.692993,236.586746 526.720520,237.284470 529.665771,237.002365 
	C534.346436,236.554001 536.017090,238.681473 535.926636,242.995819 
	C535.863831,245.989792 535.764343,248.996109 535.956970,251.979111 
	C536.216736,256.001556 534.322327,257.312012 530.559998,257.077026 
	C527.409973,256.880280 524.212585,257.272064 521.083801,256.946045 
	C516.844177,256.504211 516.467651,258.887726 516.662231,262.082489 
	C516.852112,265.200073 516.202332,268.706512 521.341187,268.204651 
	C524.639465,267.882568 527.991577,268.064392 531.318481,268.106628 
	C532.638977,268.123444 534.149414,268.004669 535.244385,268.577026 
	C542.778748,272.515167 537.402039,278.954651 537.917725,284.203430 
	C538.233459,287.417572 535.990479,289.687042 532.207031,289.686646 
	C522.929016,289.685608 513.651001,289.815094 504.372894,289.853912 
	C497.948761,289.880798 495.964844,287.944061 495.941010,281.686096 
	C495.872040,263.580078 495.872955,245.473526 495.715668,227.368301 
	C495.675354,222.724548 495.105927,218.087357 494.862823,213.442795 
	C494.629974,208.993698 496.545349,206.642868 501.271851,206.551651 
	C511.903870,206.346497 522.531738,205.928040 533.621277,205.603882 
z"/>
<path fill="#F3F4F5" opacity="1.000000" stroke="none" 
	d="
M62.074188,268.728058 
	C61.077629,279.896118 50.105019,290.165802 39.032188,289.059448 
	C31.945791,288.351471 24.802925,288.208099 17.716930,287.497101 
	C16.685644,287.393616 15.010574,285.515991 15.032388,284.489044 
	C15.141624,279.346222 15.544972,274.191742 16.187061,269.084320 
	C16.631985,265.545258 18.900585,265.797394 21.753389,266.721252 
	C26.084637,268.123901 30.536669,269.306732 35.026928,270.016663 
	C38.611477,270.583374 40.020954,268.027588 38.998188,264.983704 
	C38.075512,262.237701 36.484425,259.556519 34.619717,257.320831 
	C31.000109,252.981155 26.936508,249.015060 23.137804,244.820877 
	C15.155399,236.007401 12.824246,226.216309 16.766296,218.404388 
	C21.586645,208.851959 31.866354,203.285233 43.343468,204.289673 
	C47.292355,204.635284 51.247051,205.342453 55.092960,206.307434 
	C58.442009,207.147766 59.980934,209.549332 59.149307,213.130966 
	C58.810867,214.588562 58.541744,216.062347 58.198578,217.518738 
	C56.483963,224.795609 56.482407,224.756836 49.118279,224.089951 
	C47.476521,223.941269 45.745533,223.903137 44.151752,224.252548 
	C37.638950,225.680435 36.564167,228.760254 40.810558,233.920624 
	C45.569363,239.703690 50.544941,245.308762 55.285900,251.105988 
	C59.356052,256.082977 62.612537,261.464813 62.074188,268.728058 
z"/>
<path fill="#2962A6" opacity="1.000000" stroke="none" 
	d="
M68.669037,212.297882 
	C73.931641,216.245071 73.200447,221.852203 72.311378,228.435059 
	C76.071060,226.406433 79.163567,224.737808 82.603470,223.022888 
	C83.268356,226.130814 83.585838,229.285004 83.500008,232.927734 
	C76.249931,236.936050 69.403168,240.455841 62.556408,243.975616 
	C59.850101,241.007767 57.143780,238.039917 54.168186,234.776764 
	C55.283447,234.425461 56.281124,234.085785 57.293171,233.796341 
	C66.111778,231.274261 66.443138,223.493591 67.985817,216.488052 
	C68.265808,215.216583 68.268349,213.884048 68.669037,212.297882 
z"/>
<path fill="#F4F6F9" opacity="1.000000" stroke="none" 
	d="
M62.544106,244.359589 
	C69.403168,240.455841 76.249931,236.936050 83.426682,233.392761 
	C83.654968,241.406143 83.553276,249.443039 83.189827,257.804016 
	C78.779984,257.492310 74.631889,256.856567 70.061661,256.117371 
	C67.270279,252.257095 64.901047,248.500320 62.544106,244.359589 
z"/>
<path fill="#F2F3F5" opacity="1.000000" stroke="none" 
	d="
M617.597717,214.463074 
	C625.688965,225.666092 626.029846,240.070297 618.659546,251.302139 
	C618.030457,252.260742 617.299011,253.441452 616.333984,253.842529 
	C610.841492,256.125244 612.182617,259.414124 614.473389,263.291504 
	C617.770569,268.872070 621.021790,274.510468 623.800781,280.357941 
	C626.630493,286.312225 625.294922,288.036255 618.694702,287.971252 
	C617.199646,287.956512 615.591003,287.431824 614.229858,287.822235 
	C606.014893,290.178467 602.963135,285.440704 600.645935,278.758942 
	C599.184937,274.546112 596.737122,270.675507 594.731934,266.651398 
	C593.987732,266.793640 593.243530,266.935883 592.499329,267.078125 
	C592.499329,272.068085 592.188293,277.082977 592.586304,282.040955 
	C592.988892,287.056183 591.764282,288.885956 586.811523,288.932587 
	C571.028381,289.081207 571.011536,289.081146 571.032593,273.582031 
	C571.058716,254.279099 571.110168,234.976166 571.163025,215.673279 
	C571.185120,207.586212 572.204407,206.386017 580.470215,206.643951 
	C589.372009,206.921738 598.332397,207.180649 607.116821,208.471115 
	C610.732056,209.002213 613.954712,212.205093 617.597717,214.463074 
M593.363892,244.222534 
	C599.417542,243.639099 602.168823,240.548477 601.601318,234.969223 
	C601.108459,230.123535 597.864319,227.286560 592.964478,227.722855 
	C592.964478,232.967880 592.964478,238.245895 593.363892,244.222534 
z"/>
<path fill="#2862A8" opacity="1.000000" stroke="none" 
	d="
M561.111816,240.033646 
	C561.111816,240.033646 561.537231,240.000473 561.748657,239.977142 
	C561.980286,240.734360 562.000488,241.514893 561.981079,242.686554 
	C561.755737,243.033127 561.569946,242.988571 561.115845,242.537292 
	C560.935547,241.431564 561.023682,240.732605 561.111816,240.033646 
z"/>
<path fill="#F1F2F4" opacity="1.000000" stroke="none" 
	d="
M211.884399,268.138184 
	C219.933502,268.144318 219.948380,268.144806 219.706482,275.709778 
	C219.590332,279.342010 220.688873,284.006012 218.854401,286.282471 
	C217.332596,288.170929 212.324722,287.323975 208.852234,287.552185 
	C200.235306,288.118561 191.615875,288.657227 182.992249,289.107056 
	C177.991760,289.367889 176.414291,287.821442 176.401474,282.833313 
	C176.353622,264.221985 176.313049,245.610535 176.321579,226.999161 
	C176.323990,221.715881 176.224731,216.403519 176.773880,211.167618 
	C176.933212,209.648529 179.068375,207.292542 180.491653,207.141006 
	C185.242416,206.635162 190.095718,206.725235 194.881516,207.030106 
	C198.816299,207.280792 198.698166,210.609161 198.713196,213.443893 
	C198.793457,228.581818 198.834991,243.720032 198.843445,258.858185 
	C198.849243,269.241302 198.499268,268.076935 207.913864,268.137115 
	C209.078369,268.144562 210.242966,268.138153 211.884399,268.138184 
z"/>
<path fill="#F3F4F5" opacity="1.000000" stroke="none" 
	d="
M121.003807,263.994873 
	C116.294258,263.577759 114.460190,265.290100 114.863083,269.754730 
	C115.251129,274.054901 115.060074,278.405212 115.190224,282.731506 
	C115.276070,285.584808 114.196762,286.973297 111.122688,287.022583 
	C107.475677,287.081024 103.840576,287.669861 100.192062,287.894928 
	C94.399925,288.252228 93.218925,287.479462 93.045815,281.743073 
	C92.714478,270.763580 92.711388,259.772034 92.705048,248.785446 
	C92.698036,236.636841 92.897408,224.488098 92.881599,212.339569 
	C92.876961,208.777954 94.123032,206.238647 97.860207,206.289688 
	C107.648132,206.423355 117.446205,206.651520 127.211372,207.286118 
	C132.645767,207.639282 136.728241,210.831573 139.888397,215.271194 
	C147.734161,226.293533 148.120468,243.773819 140.534073,254.943054 
	C135.982040,261.644806 129.011322,263.504395 121.003807,263.994873 
M115.695236,226.774582 
	C115.482475,231.496094 115.208008,236.215897 115.077393,240.939682 
	C114.980972,244.426529 116.745079,244.837708 119.515556,243.413895 
	C123.850273,241.186157 124.978882,237.191757 124.463318,232.956009 
	C123.936310,228.626236 120.809700,226.517227 115.695236,226.774582 
z"/>
<path fill="#2962A6" opacity="1.000000" stroke="none" 
	d="
M83.962845,220.956207 
	C83.622078,219.919144 83.535095,218.729782 83.682274,217.263184 
	C84.016502,218.258591 84.116570,219.531235 83.962845,220.956207 
z"/>
<path fill="#E5F5FF" opacity="1.000000" stroke="none" 
	d="
M561.035400,239.570557 
	C561.023682,240.732605 560.935547,241.431564 560.835449,242.478241 
	C557.753174,241.946793 554.719788,241.193710 554.897278,236.888489 
	C555.083008,232.381012 553.970886,227.470581 560.958923,224.448593 
	C560.958923,229.848694 560.958923,234.478088 561.035400,239.570557 
z"/>
<path fill="#F3F4F5" opacity="1.000000" stroke="none" 
	d="
M347.221313,288.976135 
	C343.280396,288.582855 339.806946,287.831818 336.349670,287.900085 
	C331.787842,287.990234 330.024139,286.344940 330.772827,281.746063 
	C331.359894,278.140045 331.393890,274.447266 331.882019,270.821075 
	C332.601044,265.479523 333.627747,265.219788 338.799988,267.156250 
	C342.588196,268.574524 346.644012,269.494232 350.661285,270.025360 
	C354.930023,270.589752 356.036346,267.694000 354.807465,264.296265 
	C353.874695,261.717346 352.207001,259.274536 350.403381,257.167419 
	C346.723541,252.868393 342.657684,248.902557 338.884338,244.680145 
	C332.157257,237.152466 327.966003,228.594009 332.689880,218.702911 
	C337.721893,208.166733 346.995880,203.644409 358.504669,204.290833 
	C363.086395,204.548172 367.735626,205.521835 372.082336,206.979706 
	C373.559326,207.475052 374.729218,210.364304 375.073212,212.328857 
	C375.394073,214.161255 374.489532,216.232086 374.024292,218.173981 
	C372.391693,224.988632 372.379822,224.945801 365.425385,224.141113 
	C363.785126,223.951324 362.057434,223.870987 360.448669,224.167480 
	C353.701874,225.410843 352.480621,228.757828 356.836395,234.017883 
	C361.936218,240.176437 367.300018,246.123657 372.240387,252.405487 
	C382.728882,265.741821 378.724609,281.713959 362.928650,287.741638 
	C358.358673,289.485504 352.800934,288.640930 347.221313,288.976135 
z"/>
<path fill="#F3F4F5" opacity="1.000000" stroke="none" 
	d="
M285.402527,287.985291 
	C282.051788,288.203979 280.622864,286.775543 280.404022,283.961761 
	C280.262207,282.138458 279.983551,280.318604 279.959961,278.494690 
	C279.908569,274.520569 278.958618,271.994934 274.006653,272.185455 
	C268.926575,272.380859 267.933105,275.203552 267.858246,279.277008 
	C267.830719,280.773010 267.910400,282.289368 267.692169,283.759521 
	C267.282715,286.517212 266.052277,288.243469 262.762451,288.046234 
	C258.618317,287.797821 254.447220,288.035828 250.289185,287.972168 
	C245.128494,287.893188 244.182098,286.731415 245.194305,281.519196 
	C248.616898,263.895294 252.164825,246.295425 255.511581,228.657257 
	C256.532440,223.277222 257.227264,217.819748 257.757294,212.367203 
	C258.162415,208.199600 260.531006,206.363632 264.297363,206.373886 
	C270.762634,206.391479 277.226044,206.886139 283.692017,206.933075 
	C287.523895,206.960907 289.546692,208.660538 290.197998,212.342117 
	C291.616486,220.360809 293.072083,228.373047 294.542816,236.382355 
	C297.121063,250.423065 299.607849,264.482056 302.360321,278.488678 
	C303.800995,285.819946 302.712677,287.595459 295.338043,287.925415 
	C292.183075,288.066559 289.017609,287.973511 285.402527,287.985291 
z"/>
<path fill="#2F5687" opacity="1.000000" stroke="none" 
	d="
M593.164185,243.873230 
	C592.964478,238.245895 592.964478,232.967880 592.964478,227.722855 
	C597.864319,227.286560 601.108459,230.123535 601.601318,234.969223 
	C602.168823,240.548477 599.417542,243.639099 593.164185,243.873230 
z"/>
<path fill="#2F5687" opacity="1.000000" stroke="none" 
	d="
M116.058075,226.614044 
	C120.809700,226.517227 123.936310,228.626236 124.463318,232.956009 
	C124.978882,237.191757 123.850273,241.186157 119.515556,243.413895 
	C116.745079,244.837708 114.980972,244.426529 115.077393,240.939682 
	C115.208008,236.215897 115.482475,231.496094 116.058075,226.614044 
z"/>
</svg>